<svg width="423.286877866508" height="107.62283592752034" viewBox="0 0 423.286877866508 107.62283592752034" class="css-1j8o68f"><defs id="SvgjsDefs4083"></defs><g id="SvgjsG4084" featurekey="symbolFeature-0" transform="matrix(1.1260770636657997,0,0,1.1260770636657997,-0.11823797892427772,-4.9851432123962125)" fill="#ffffff"><g xmlns="http://www.w3.org/2000/svg" display="none"><circle display="inline" cx="29.207" cy="20.747" r="6.217"></circle><circle display="inline" cx="11.902" cy="43.783" r="6.217"></circle><rect x="17.93" y="46.13" transform="matrix(0.7071 0.7071 -0.7071 0.7071 40.9816 -0.454)" display="inline" width="6.218" height="6.217"></rect><rect x="13.531" y="50.525" transform="matrix(0.7071 0.7071 -0.7071 0.7071 42.7979 3.9429)" display="inline" width="6.218" height="6.217"></rect><rect x="9.137" y="54.92" transform="matrix(0.7071 0.7071 -0.7071 0.7071 44.6222 8.3396)" display="inline" width="6.217" height="6.218"></rect><rect x="17.928" y="54.921" transform="matrix(0.707 0.7072 -0.7072 0.707 47.2039 2.1251)" display="inline" width="6.218" height="6.217"></rect><rect x="13.531" y="59.315" transform="matrix(0.7071 0.7071 -0.7071 0.7071 49.0139 6.5177)" display="inline" width="6.218" height="6.217"></rect><rect x="22.202" y="59.195" transform="matrix(0.7071 0.7071 -0.7071 0.7071 51.4722 0.3522)" display="inline" width="6.219" height="6.217"></rect><rect x="26.598" y="54.738" transform="matrix(0.7071 0.7071 -0.7071 0.7071 49.6082 -4.062)" display="inline" width="6.219" height="6.217"></rect><rect x="30.996" y="59.134" transform="matrix(0.707 0.7072 -0.7072 0.707 54.0123 -5.8821)" display="inline" width="6.218" height="6.217"></rect><rect x="35.39" y="63.529" transform="matrix(0.7071 0.7071 -0.7071 0.7071 58.4002 -7.7041)" display="inline" width="6.219" height="6.217"></rect><rect x="39.788" y="67.925" transform="matrix(0.707 0.7072 -0.7072 0.707 62.8013 -9.5256)" display="inline" width="6.218" height="6.217"></rect><rect x="17.808" y="63.59" transform="matrix(0.7071 0.7071 -0.7071 0.7071 53.2931 4.7475)" display="inline" width="6.217" height="6.218"></rect><rect x="22.174" y="67.956" transform="matrix(0.7071 0.7071 -0.7071 0.7071 57.6516 2.9346)" display="inline" width="6.218" height="6.217"></rect><rect x="26.528" y="72.319" transform="matrix(0.7071 0.7071 -0.7071 0.7071 62.0158 1.1361)" display="inline" width="6.218" height="6.217"></rect><rect x="22.172" y="76.679" transform="matrix(0.7069 0.7073 -0.7073 0.7069 63.8433 5.5033)" display="inline" width="6.219" height="6.217"></rect><rect x="4.741" y="59.318" transform="matrix(0.7069 0.7073 -0.7073 0.7069 46.4548 12.7438)" display="inline" width="6.219" height="6.216"></rect><rect x="22.323" y="41.732" transform="matrix(0.7071 0.7071 -0.7071 0.7071 39.1562 -4.8498)" display="inline" width="6.218" height="6.217"></rect><rect x="26.689" y="37.366" transform="matrix(0.7071 0.7071 -0.7071 0.7071 37.3471 -9.2157)" display="inline" width="6.218" height="6.217"></rect></g><g xmlns="http://www.w3.org/2000/svg"><circle cx="12.721" cy="36.052" r="7.059"></circle><path d="M53.198,28.337l-5.713,5.712c-0.169,0.169-0.314,0.339-0.423,0.533c-0.279,0.387-0.448,0.811-0.533,1.259   c-0.048,0.23-0.072,0.472-0.072,0.714c0,0.23,0.023,0.448,0.06,0.666l0.568,1.331c0.11,0.182,0.243,0.339,0.399,0.497h0.013   c0.411,0.424,0.908,0.714,1.439,0.871c0.134,0.037,0.266,0.073,0.411,0.097c0.049,0,0.097,0.013,0.146,0.024   c0.134,0.024,0.266,0.037,0.411,0.024c0.025,0.012,0.062,0.012,0.085,0.012h0.217h13.894c0.969,0,1.864-0.399,2.493-1.029   c0.642-0.642,1.041-1.525,1.041-2.493c0-1.948-1.586-3.534-3.534-3.534h-5.591l10.492-10.493l3.751,3.751l0.025,0.024   c0.072,0.085,0.157,0.182,0.242,0.267L85.51,39.047c0.69,0.689,1.587,1.041,2.494,1.041s1.804-0.351,2.492-1.041   c1.381-1.38,1.381-3.619,0-4.999l-8.786-8.786c-0.071-0.084-0.156-0.181-0.242-0.267L68.991,12.52   c-0.69-0.69-1.598-1.042-2.493-1.042c-0.109,0-0.229,0-0.339,0.013H52.472v0.024c-0.835,0.049-1.646,0.387-2.275,1.017l-7.128,7.14   l-0.073,0.061c-0.06,0.06-0.132,0.121-0.194,0.181L30.325,32.391c-0.084,0.084-0.17,0.182-0.243,0.266L18.585,44.155   c-0.084,0.084-0.169,0.181-0.242,0.266l-8.677,8.677c-0.109,0.109-0.206,0.218-0.278,0.326c0,0-0.012,0.014-0.024,0.014   c-0.013,0.012-0.013,0.012-0.037,0.035l-4.986,4.986c-0.327,0.327-0.593,0.727-0.774,1.175c-0.037,0.108-0.072,0.205-0.109,0.314   C3.349,60.274,3.3,60.613,3.3,60.952c0,0.109,0,0.229,0.012,0.338v6.73c0,0.012,0,0.012,0,0.023v4.538c0,0.013,0,0.013,0,0.024   c0,1.937,1.585,3.497,3.521,3.497c1.949,0,3.534-1.572,3.534-3.521V62.417l2.215-2.215v22.329L1.134,93.967   c-0.689,0.689-1.029,1.598-1.029,2.493c0,0.908,0.339,1.815,1.029,2.506c1.38,1.379,3.619,1.379,4.998,0l12.478-12.49   c0.097-0.097,0.194-0.205,0.278-0.314c0.061-0.073,0.121-0.157,0.169-0.242c0.121-0.182,0.23-0.376,0.303-0.568   c0.037-0.073,0.061-0.146,0.097-0.23c0.121-0.362,0.182-0.75,0.182-1.138v-11.4h14.123v14.111c0,0.98,0.399,1.852,1.042,2.494   c0.641,0.64,1.513,1.04,2.492,1.04c1.949,0,3.522-1.585,3.522-3.534V69.048c0-1.947-1.573-3.533-3.522-3.533H26.706V46.03   l2.917-2.917c0.048-0.048,0.085-0.085,0.121-0.133l6.317-6.317c0.084-0.084,0.169-0.182,0.242-0.266l3.655-3.655   c0.085-0.073,0.182-0.158,0.266-0.242l10.421-10.42h8.811l-6.196,6.196C53.233,28.3,53.222,28.312,53.198,28.337z"></path><rect x="46.458" y="46.558" width="53.437" height="53.437"></rect><circle cx="37.242" cy="11.486" r="7.059"></circle></g></g><g id="SvgjsG4085" featurekey="nameFeature-0" transform="matrix(1.8703498599659354,0,0,1.8703498599659354,150.52413528844676,-9.854439788054709)" fill="#cefbf4"><path d="M20.039 40 l-10.273 -12.969 l-2.5195 0 l0 12.969 l-2.7148 0 l0 -27.246 l2.7148 0 l0 11.797 l2.5195 0 l9.7656 -11.797 l3.3398 0 l-10.762 12.969 l11.406 14.277 l-3.4766 0 z M50.420046875 40 l-2.4609 -6.8359 l-12.637 0 l-2.4609 6.8359 l-2.8711 0 l10.039 -27.246 l3.2031 0 l10.039 27.246 l-2.8516 0 z M36.220746875 30.6836 l10.84 0 l-5.4297 -15.078 z M63.046925 40 l0 -27.246 l8.418 0 c8.2031 0 12.441 5.7031 12.441 13.613 c0 7.9297 -4.2383 13.633 -12.441 13.633 l-8.418 0 z M65.761725 37.5 l5.6445 0 c6.543 0 9.707 -4.4922 9.707 -11.133 c0 -6.6211 -3.1641 -11.113 -9.707 -11.113 l-5.6445 0 l0 22.246 z M95.029346875 40 l0 -27.246 l2.7148 0 l0 27.246 l-2.7148 0 z M128.90634375 12.754000000000001 l2.6758 0 l0 27.246 l-2.6563 0 l-15.605 -22.91 l0 22.91 l-2.6367 0 l0 -27.246 l2.6367 0 l15.586 22.813 l0 -22.813 z"></path></g><g id="SvgjsG4086" featurekey="sloganFeature-0" transform="matrix(0.4662445917891601,0,0,0.4662445917891601,131.59930927082564,84.23060322585269)" fill="#cefbf4"><path d="M8.0762 20.19531 c-4.1504 0 -7.2168 -2.832 -7.2168 -7.2559 c0 -4.4336 3.0664 -7.2461 7.2168 -7.2461 c4.1406 0 7.207 2.8125 7.207 7.2461 c0 4.4238 -3.0664 7.2559 -7.207 7.2559 z M8.0762 17.5098 c2.4316 0 4.2969 -1.709 4.2969 -4.5703 c0 -2.8516 -1.8652 -4.5508 -4.2969 -4.5508 s-4.2969 1.6992 -4.2969 4.5508 c0 2.8613 1.8652 4.5703 4.2969 4.5703 z M49.335890625000005 20 l-2.9199 0 l-0.92773 -10.635 l-3.5742 10.635 l-1.8945 0 l-3.5742 -10.635 l-0.9375 10.635 l-2.9297 0 l1.1816 -14.111 l4.1797 0 l3.0078 8.8574 l3.0469 -8.8574 l4.1797 0 z M65.5812890625 8.467 l-5.2344 0 l0 3.2031 l4.6387 0 l0 2.5488 l-4.6387 0 l0 3.1934 l5.2344 0 l0 2.5879 l-8.1836 0 l0 -14.111 l8.1836 0 l0 2.5781 z M76.523478125 17.4121 l4.4238 0 l0 2.5879 l-7.3535 0 l0 -14.111 l2.9297 0 l0 11.523 z M97.0755390625 5.888999999999999 l2.9297 0 l0 14.111 l-2.9297 0 l0 -5.8008 l-5.9668 0 l0 5.8008 l-2.9297 0 l0 -14.111 l2.9297 0 l0 5.7617 l5.9668 0 l0 -5.7617 z M114.902371875 20.19531 c-4.1504 0 -7.2168 -2.832 -7.2168 -7.2559 c0 -4.4336 3.0664 -7.2461 7.2168 -7.2461 c4.1406 0 7.207 2.8125 7.207 7.2461 c0 4.4238 -3.0664 7.2559 -7.207 7.2559 z M114.902371875 17.5098 c2.4316 0 4.2969 -1.709 4.2969 -4.5703 c0 -2.8516 -1.8652 -4.5508 -4.2969 -4.5508 s-4.2969 1.6992 -4.2969 4.5508 c0 2.8613 1.8652 4.5703 4.2969 4.5703 z M137.2509328125 20 l-3.6719 -6.2109 l-0.84961 0 l0 6.2109 l-2.9297 0 l0 -14.111 l5.1172 0 c3.1934 0 4.541 1.8848 4.541 4.2188 c0 1.8945 -1.0742 3.125 -2.9883 3.5352 l4.248 6.3574 l-3.4668 0 z M132.7295328125 8.32 l0 3.3691 l1.7285 0 c1.5625 0 2.1973 -0.66406 2.1973 -1.6797 c0 -1.0059 -0.63477 -1.6895 -2.1973 -1.6895 l-1.7285 0 z M166.2355859375 5.888999999999999 l0 2.5781 l-3.3496 0 l0 11.533 l-2.9004 0 l0 -11.533 l-3.3691 0 l0 -2.5781 l9.6191 0 z M180.89839375 20 l-3.6719 -6.2109 l-0.84961 0 l0 6.2109 l-2.9297 0 l0 -14.111 l5.1172 0 c3.1934 0 4.541 1.8848 4.541 4.2188 c0 1.8945 -1.0742 3.125 -2.9883 3.5352 l4.248 6.3574 l-3.4668 0 z M176.37699375 8.32 l0 3.3691 l1.7285 0 c1.5625 0 2.1973 -0.66406 2.1973 -1.6797 c0 -1.0059 -0.63477 -1.6895 -2.1973 -1.6895 l-1.7285 0 z M199.6926171875 8.467 l-5.2344 0 l0 3.2031 l4.6387 0 l0 2.5488 l-4.6387 0 l0 3.1934 l5.2344 0 l0 2.5879 l-8.1836 0 l0 -14.111 l8.1836 0 l0 2.5781 z M207.70510625 20 l0 -14.111 l2.9297 0 l0 14.111 l-2.9297 0 z M228.9112890625 5.888999999999999 l2.9199 0 l0 14.111 l-3.3887 0 l-6.25 -10.088 l0 10.088 l-2.9199 0 l0 -14.111 l3.3496 0 l6.2891 10.029 l0 -10.029 z M249.92234375 20 l-1.0254 -2.9102 l-5.9277 0 l-1.0254 2.9102 l-2.998 0 l5.1953 -14.111 l3.584 0 l5.1953 14.111 l-2.998 0 z M243.82814375 14.6387 l4.209 0 l-2.0996 -5.9863 z M276.2060078125 20 l-2.9199 0 l-0.92773 -10.635 l-3.5742 10.635 l-1.8945 0 l-3.5742 -10.635 l-0.9375 10.635 l-2.9297 0 l1.1816 -14.111 l4.1797 0 l3.0078 8.8574 l3.0469 -8.8574 l4.1797 0 z M292.45140625 8.467 l-5.2344 0 l0 3.2031 l4.6387 0 l0 2.5488 l-4.6387 0 l0 3.1934 l5.2344 0 l0 2.5879 l-8.1836 0 l0 -14.111 l8.1836 0 l0 2.5781 z M310.1026953125 5.888999999999999 l2.9199 0 l0 14.111 l-3.3887 0 l-6.25 -10.088 l0 10.088 l-2.9199 0 l0 -14.111 l3.3496 0 l6.2891 10.029 l0 -10.029 z M329.85375 5.888999999999999 l0 2.5781 l-3.3496 0 l0 11.533 l-2.9004 0 l0 -11.533 l-3.3691 0 l0 -2.5781 l9.6191 0 z M343.3154578125 20.19531 c-4.1504 0 -7.2168 -2.832 -7.2168 -7.2559 c0 -4.4336 3.0664 -7.2461 7.2168 -7.2461 c4.1406 0 7.207 2.8125 7.207 7.2461 c0 4.4238 -3.0664 7.2559 -7.207 7.2559 z M343.3154578125 17.5098 c2.4316 0 4.2969 -1.709 4.2969 -4.5703 c0 -2.8516 -1.8652 -4.5508 -4.2969 -4.5508 s-4.2969 1.6992 -4.2969 4.5508 c0 2.8613 1.8652 4.5703 4.2969 4.5703 z M382.3681484375 20.58594 l-2.4414 0.92773 l-1.8066 -2.0313 c-0.99609 0.45898 -2.1484 0.71289 -3.3984 0.71289 c-4.1992 0 -7.3047 -2.832 -7.3047 -7.2559 c0 -4.4336 3.1055 -7.2461 7.3047 -7.2461 s7.3047 2.8125 7.3047 7.2461 c0 2.0996 -0.69336 3.8379 -1.875 5.0879 z M370.3369484375 12.939499999999999 c0 3.0078 1.9043 4.707 4.3848 4.707 s4.3848 -1.6992 4.3848 -4.707 c0 -2.8516 -1.9043 -4.5508 -4.3848 -4.5508 s-4.3848 1.6992 -4.3848 4.5508 z M395.087909375 20.19531 c-3.0957 0 -5.5176 -1.582 -5.5176 -5.1367 l0 -9.1699 l2.9297 0 l0 8.7695 c0 2.1484 1.1426 2.9492 2.5879 2.9492 c1.4551 0 2.6074 -0.81055 2.6074 -2.9492 l0 -8.7695 l2.9297 0 l0 9.1699 c0 3.5547 -2.4316 5.1367 -5.5371 5.1367 z M417.1633203125 8.467 l-5.2344 0 l0 3.2031 l4.6387 0 l0 2.5488 l-4.6387 0 l0 3.1934 l5.2344 0 l0 2.5879 l-8.1836 0 l0 -14.111 l8.1836 0 l0 2.5781 z M444.3410390625 5.888999999999999 l3.1152 0 l-5.2148 14.111 l-3.2227 0 l-5.1855 -14.111 l3.1055 0 l3.7012 10.693 z M460.820340625 20.19531 c-4.1504 0 -7.2168 -2.832 -7.2168 -7.2559 c0 -4.4336 3.0664 -7.2461 7.2168 -7.2461 c4.1406 0 7.207 2.8125 7.207 7.2461 c0 4.4238 -3.0664 7.2559 -7.207 7.2559 z M460.820340625 17.5098 c2.4316 0 4.2969 -1.709 4.2969 -4.5703 c0 -2.8516 -1.8652 -4.5508 -4.2969 -4.5508 s-4.2969 1.6992 -4.2969 4.5508 c0 2.8613 1.8652 4.5703 4.2969 4.5703 z M481.9678015625 20.19531 c-4.1504 0 -7.2168 -2.8223 -7.2168 -7.2559 s3.0664 -7.2461 7.2168 -7.2461 c3.1445 0 5.6641 1.6113 6.6699 4.2871 l-2.7344 0.99609 c-0.625 -1.6406 -2.1191 -2.5879 -3.9355 -2.5879 c-2.4316 0 -4.2969 1.6992 -4.2969 4.5508 s1.8652 4.5605 4.2969 4.5605 c1.8164 0 3.3105 -0.95703 3.9355 -2.5977 l2.7344 0.99609 c-1.0059 2.6758 -3.5254 4.2969 -6.6699 4.2969 z M500.185584375 2.9490000000000016 l-1.3281 1.6211 l-1.7285 0 l2.2168 -2.9199 l1.6895 0 l2.2168 2.9199 l-1.7285 0 z M504.218984375 8.467 l-5.2344 0 l0 3.2031 l4.6387 0 l0 2.5488 l-4.6387 0 l0 3.1934 l5.2344 0 l0 2.5879 l-8.1836 0 l0 -14.111 l8.1836 0 l0 2.5781 z M538.593703125 20 l-2.9199 0 l-0.92773 -10.635 l-3.5742 10.635 l-1.8945 0 l-3.5742 -10.635 l-0.9375 10.635 l-2.9297 0 l1.1816 -14.111 l4.1797 0 l3.0078 8.8574 l3.0469 -8.8574 l4.1797 0 z M554.8391015625 8.467 l-5.2344 0 l0 3.2031 l4.6387 0 l0 2.5488 l-4.6387 0 l0 3.1934 l5.2344 0 l0 2.5879 l-8.1836 0 l0 -14.111 l8.1836 0 l0 2.5781 z M570.302690625 20 l-3.6719 -6.2109 l-0.84961 0 l0 6.2109 l-2.9297 0 l0 -14.111 l5.1172 0 c3.1934 0 4.541 1.8848 4.541 4.2188 c0 1.8945 -1.0742 3.125 -2.9883 3.5352 l4.248 6.3574 l-3.4668 0 z M565.781290625 8.32 l0 3.3691 l1.7285 0 c1.5625 0 2.1973 -0.66406 2.1973 -1.6797 c0 -1.0059 -0.63477 -1.6895 -2.1973 -1.6895 l-1.7285 0 z M589.0969140625 8.467 l-5.2344 0 l0 3.2031 l4.6387 0 l0 2.5488 l-4.6387 0 l0 3.1934 l5.2344 0 l0 2.5879 l-8.1836 0 l0 -14.111 l8.1836 0 l0 2.5781 z M603.359403125 20.19531 c-4.1504 0 -7.2168 -2.8223 -7.2168 -7.2559 s3.0664 -7.2461 7.2168 -7.2461 c3.1445 0 5.6641 1.6113 6.6699 4.2871 l-2.7344 0.99609 c-0.625 -1.6406 -2.1191 -2.5879 -3.9355 -2.5879 c-2.4316 0 -4.2969 1.6992 -4.2969 4.5508 s1.8652 4.5605 4.2969 4.5605 c1.8164 0 3.3105 -0.95703 3.9355 -2.5977 l2.7344 0.99609 c-1.0059 2.6758 -3.5254 4.2969 -6.6699 4.2969 z M625.6105859375 8.467 l-5.2344 0 l0 3.2031 l4.6387 0 l0 2.5488 l-4.6387 0 l0 3.1934 l5.2344 0 l0 2.5879 l-8.1836 0 l0 -14.111 l8.1836 0 l0 2.5781 z"></path></g></svg>    